<?xml version="1.0" encoding="utf-8"?>
<!-- Generator: Adobe Illustrator 16.0.0, SVG Export Plug-In . SVG Version: 6.00 Build 0)  -->
<!DOCTYPE svg PUBLIC "-//W3C//DTD SVG 1.1//EN" "http://www.w3.org/Graphics/SVG/1.1/DTD/svg11.dtd">
<svg version="1.1" id="Layer_1" xmlns="http://www.w3.org/2000/svg" xmlns:xlink="http://www.w3.org/1999/xlink" x="0px" y="0px"
	 width="960px" height="560px" viewBox="0 0 960 560" enable-background="new 0 0 960 560" xml:space="preserve">
<circle fill="#564B3D" cx="387.771" cy="314.645" r="8.833"/>
<circle fill="#564B3D" cx="728.222" cy="307.816" r="8.833"/>
<g>
	<g>
		<g>
			<path fill="#9F866B" d="M211.49,365.533c0.204-0.027,0.405-0.051,0.601-0.111c0.442-0.137,0.792-0.402,0.89-0.869
				c0.379-1.809-1.239-2.545-2.693-2.893c-2.1-0.504-4.306-0.596-6.429-1.074c-0.52-0.117-1.766,0.408-1.45,1.131
				c0.443,1.01,0.728,2.037,0.958,3.115c0.123,0.574,0.861,0.592,1.302,0.512c1.789-0.328,4.387-0.986,6.073-0.006
				c0.887,0.516,2.753-0.678,1.659-1.312c-2.448-1.424-5.53-0.77-8.162-0.287c0.434,0.17,0.868,0.34,1.302,0.512
				c-0.23-1.078-0.516-2.105-0.958-3.115c-0.483,0.377-0.967,0.754-1.45,1.131c1.371,0.309,2.725,0.635,4.125,0.771
				c1.045,0.1,3.856,0.016,3.513,1.65c0.297-0.291,0.593-0.58,0.89-0.871c-0.003,0.006-0.005,0.01-0.008,0.014
				C210.411,363.986,210.019,365.717,211.49,365.533z"/>
		</g>
	</g>
	<g>
		<g>
			<path fill="#9F866B" d="M215.174,359.332c-0.839,1.506-1.678,3.01-2.517,4.514c-0.171,0.309,0.5,0.326,0.621,0.32
				c0.513-0.025,1.062-0.195,1.448-0.543c1.355-1.221,2.058-2.938,2.6-4.639C217.5,358.443,215.367,358.73,215.174,359.332
				c-0.515,1.613-1.147,3.232-2.433,4.389c0.69-0.074,1.379-0.148,2.069-0.223c0.839-1.504,1.678-3.01,2.517-4.514
				c0.216-0.387-0.779-0.307-0.891-0.289C216.012,358.764,215.401,358.926,215.174,359.332z"/>
		</g>
	</g>
	<g>
		<g>
			<path fill="#9F866B" d="M210.791,364.76c-0.035,0.072-0.069,0.145-0.104,0.217c0.699-0.188,1.397-0.375,2.096-0.562
				c-1.765-1.365-6.164-0.047-8.305,0.426c0.41,0.08,0.819,0.16,1.229,0.24c-0.055-0.277-0.11-0.555-0.165-0.83
				c-0.069-0.344-0.693-0.346-0.936-0.299c-2.816,0.541-5.232,0.271-7.959-0.336c-0.419-0.092-2.196,0.287-1.677,1.004
				c0.66,0.865,1.272,1.762,1.836,2.689c0.387-0.336,0.774-0.674,1.161-1.012c-2.41,0.146-4.755-0.121-7.14,0.311
				c-0.262,0.047-1.689,0.494-1.161,1.012c1.248,1.225,2.41,2.023,3.934,2.83c0.241-0.35,0.482-0.701,0.724-1.051
				c-1.505,0.395-3.002,0.816-4.511,1.199c-0.185,0.047-1.382,0.602-0.867,0.953c2.057,1.406,4.346,1.98,6.764,2.496
				c1.283,0.273,2.584,0.457,3.875,0.693c2.276,0.418,3.433,2.24,5.158,3.674c0.486,0.404,1.711,0.148,2.02-0.406
				c0.981-1.758,1.797-4.182,3.503-5.299c0.263-0.174,0.685-0.623,0.195-0.832c-0.435-0.188,1.271-2.781,1.74-3.621
				c-0.56,0.188-1.119,0.377-1.678,0.564c0.36,0.061,0.721,0.121,1.082,0.182c0.49,0.082,1.63-0.094,1.753-0.721
				c0.329-1.682,0.403-2.824,1.249-4.342c-0.699,0.041-1.397,0.082-2.096,0.123c-0.114,0.412-0.229,0.824-0.344,1.236
				c-0.217,0.779,1.95,0.42,2.172-0.279c0.136-0.443,0.272-0.887,0.408-1.33c0.533-0.951-1.532-0.49-1.879-0.188
				c-0.006,0.006-0.013,0.012-0.019,0.018c0.651,0.01,1.303,0.02,1.955,0.029c0.139-0.566,0.279-1.135,0.418-1.703
				c0.195-0.797-1.975-0.43-2.172,0.279c-0.317,1.141-0.212,1.562-1.597,2.059c-1.434,0.516-0.119,1.221,0.853,0.871
				c2.054-0.736,2.358-1.205,2.917-3.209c-0.724,0.092-1.448,0.186-2.172,0.279c-0.139,0.566-0.279,1.135-0.418,1.703
				c-0.214,0.871,1.685,0.266,1.955,0.031c0.006-0.006,0.013-0.012,0.019-0.018c-0.626-0.062-1.253-0.125-1.879-0.186
				c-0.281,0.5-0.397,1.133-0.559,1.643c0.724-0.094,1.448-0.188,2.172-0.279c0.114-0.412,0.229-0.824,0.344-1.236
				c0.227-0.816-1.832-0.352-2.096,0.123c-1.18,2.117-0.911,2.156-1.4,4.654c0.584-0.24,1.169-0.482,1.753-0.723
				c-0.36-0.061-0.721-0.121-1.082-0.182c-0.501-0.084-1.399,0.066-1.678,0.566c-0.726,1.301-1.452,2.604-2.178,3.906
				c-0.119,0.213-0.109,0.428,0.144,0.537c-0.843-0.361-3.081,4.73-3.403,5.309c0.673-0.135,1.347-0.27,2.02-0.404
				c-2.6-2.162-2.683-3.365-5.842-3.994c-3.358-0.666-7.043-0.881-9.954-2.869c-0.289,0.318-0.578,0.637-0.867,0.955
				c1.509-0.385,3.006-0.805,4.511-1.199c0.339-0.09,1.439-0.674,0.724-1.053c-1.424-0.609-2.64-1.488-3.646-2.635
				c-0.387,0.338-0.774,0.676-1.161,1.012c2.34-0.424,4.765-0.166,7.14-0.311c0.405-0.023,1.534-0.434,1.161-1.012
				c-0.563-0.93-1.176-1.826-1.836-2.689c-0.559,0.334-1.118,0.67-1.677,1.004c0.37,0.082,8.263,1.092,8.222,0.883
				c0.091,0.461,0.949,0.303,1.229,0.242c-0.461,0.102,5.461-1.062,6-0.646c0.593,0.459,1.786,0.084,2.096-0.561
				c0.035-0.072,0.069-0.145,0.104-0.217C213.267,363.846,211.12,364.072,210.791,364.76z"/>
		</g>
	</g>
	<g>
		<g>
			<path fill="#9F866B" d="M204.583,361.135c-1.607-3.064-2.798-2.725-5.803-2.785c-1.923-0.039-3.711-0.986-5.672-0.637
				c-1.757,0.314-3.329,0.961-4.913,1.775c-0.156,0.082-0.77,0.541-0.25,0.627c1.519,0.254,3.147,1.678,4.616,1.434
				c3.663-0.613,6.431-0.482,10.049,0.32c0.538,0.119,2.451-0.738,1.773-0.889c-3.949-0.875-7.794-1.475-11.734-0.26
				c0.374,0,0.749,0,1.123,0c-1.305-0.779-2.547-1.242-4.053-1.494c-0.083,0.209-0.167,0.418-0.25,0.627
				c3.143-1.617,5.576-0.602,8.649-0.539c2.234,0.047,3.105,0.139,4.292,2.402C202.716,362.301,204.792,361.533,204.583,361.135z"/>
		</g>
	</g>
	<g>
		<g>
			<path fill="#9F866B" d="M208.949,373.068c2.458,0.9,6.556,1.732,8.329-0.828c1.92-2.773-2.556-4.082-4.365-4.492
				c-0.616-0.139-1.552,0.082-1.738,0.777c-0.37,1.385-1.174,2.553-2.283,3.449c-1.148,0.928,0.637,1.461,1.401,0.844
				c1.481-1.197,2.574-2.643,3.071-4.504c-0.58,0.26-1.159,0.518-1.738,0.777c1.254,0.285,3.438,0.57,3.812,2.049
				c0.609,2.408-4.308,0.912-5.203,0.584C209.417,371.424,207.685,372.604,208.949,373.068z"/>
		</g>
	</g>
	<g>
		<g>
			<path fill="#9F866B" d="M190.171,369.701c-0.467-1.096-0.174-1.848,0.879-2.26c0.073-0.027,0.861-0.336,0.711-0.535
				c-1.687-2.252,1.798-2.566,3.324-2.289c0.303,0.055,2.328-0.291,1.917-0.789c-2.281-2.76-3.798-4.148-6.646-1.715
				c-1.431,1.223-2.568,2.816-3.865,4.176c-1.274,1.336-1.143,1.076-1.578-0.541c-0.714-2.658,2.995-5,4.749-6.047
				c0.369-0.221,0.271-0.445-0.126-0.471c-5.372-0.342-11.297,3.135-12.425,8.729c-1.346,6.672,9.824,4.238,12.932,3.504
				c0.167-0.039,1.254-0.381,0.935-0.703C190.709,370.406,190.44,370.053,190.171,369.701c-0.303-0.539-2.349,0.27-2.174,0.582
				c0.424,0.752,0.303,0.58,0.933,1.215c0.312-0.234,0.623-0.469,0.935-0.701c-4.333,1.021-13.167,1.779-9.908-5.346
				c0.431-0.941,1.176-1.787,1.856-2.539c0.389-0.402,0.799-0.783,1.231-1.139c1.086-1.014,2.406-1.525,3.96-1.539
				c-1.956,1.168-3.602,2.85-4.23,5.059c-0.771,2.713,1.463,3.207,3.293,2.578c3.091-1.062,4.119-5.545,7.058-6.523
				c-0.466,0.041-0.933,0.082-1.399,0.125c1.244,0.912,2.246,1.906,3.228,3.094c0.639-0.262,1.278-0.525,1.917-0.789
				c-3.109-0.566-5.857-0.377-8.271,1.797c-0.073,0.053-0.107,0.123-0.104,0.209c0.28,0.623,0.644,1.191,1.092,1.705
				c0.237-0.178,0.474-0.355,0.711-0.535c-1.712,0.637-2.705,1.355-2.303,3.33C188.091,370.744,190.277,370.223,190.171,369.701z"/>
		</g>
	</g>
	<g>
		<g>
			<path fill="#9F866B" d="M215.21,361.814c0.456-1.639,0.912-3.277,1.367-4.914c-0.721,0.152-1.442,0.307-2.164,0.461
				c-0.042,1.049-0.018,2.045,0.083,3.088c0.056,0.584,2.024,0.006,2.164-0.461c0.636-2.133,0.949-4.236,1.009-6.453
				c0.016-0.588-1.972,0.061-2.164,0.461c-0.144,0.303-0.289,0.605-0.433,0.906c0.718-0.113,1.436-0.227,2.154-0.342
				c0.793-2.85,1.586-5.699,2.379-8.549c0.17-0.611-1.939-0.219-2.154,0.342c-1.981,5.152-3.233,10.418-4.396,15.803
				C212.922,362.777,215.08,362.42,215.21,361.814c1.163-5.387,2.416-10.65,4.396-15.803c-0.718,0.113-1.436,0.227-2.154,0.342
				c-0.793,2.85-1.586,5.699-2.379,8.549c-0.178,0.641,1.914,0.162,2.154-0.342c0.144-0.303,0.289-0.604,0.433-0.906
				c-0.721,0.154-1.442,0.309-2.164,0.463c-0.058,2.145-0.38,4.164-0.991,6.213c0.721-0.154,1.442-0.309,2.164-0.463
				c-0.101-1.045-0.125-2.039-0.083-3.088c0.021-0.506-2.022-0.047-2.164,0.463c-0.456,1.639-0.912,3.275-1.367,4.914
				C212.893,362.742,215.041,362.426,215.21,361.814z"/>
		</g>
	</g>
	<g>
		<g>
			<path fill="#9F866B" d="M222.01,338.713c1.376-6.047,3.008-12.025,4.667-18c0.25-0.902-1.956-0.602-2.186,0.227
				c-2.351,8.451-4.703,16.904-7.054,25.355c-0.265,0.953,1.905,0.508,2.186-0.227C220.55,343.645,221.415,341.242,222.01,338.713
				c0.218-0.928-1.989-0.609-2.186,0.227c-0.595,2.529-1.46,4.932-2.387,7.355c0.729-0.074,1.457-0.15,2.186-0.227
				c2.351-8.451,4.703-16.904,7.054-25.355c-0.729,0.074-1.457,0.15-2.186,0.227c-1.659,5.975-3.29,11.951-4.667,18
				C219.612,339.869,221.819,339.549,222.01,338.713z"/>
		</g>
	</g>
	<g>
		<g>
			<path fill="#9F866B" d="M275.903,203.462c-10.16,19.53-19.241,39.591-29.443,59.118c-9.868,18.889-18.538,39.443-22.964,60.378
				c-0.182,0.859,1.855,0.436,2.101-0.104c20.351-44.647,40.703-89.295,61.054-133.943c1.427-3.13,2.853-6.259,4.28-9.389
				c0.446-0.979-1.514-0.641-1.888-0.219C282.873,186.264,280.433,195.499,275.903,203.462c-0.518,0.911,1.668,0.692,2.027,0.061
				c4.449-7.822,6.806-17.013,12.86-23.842c-0.629-0.073-1.258-0.146-1.888-0.219c-20.351,44.648-40.703,89.296-61.054,133.944
				c-1.427,3.129-2.853,6.26-4.28,9.389c0.7-0.033,1.401-0.068,2.101-0.102c4.4-20.807,13.043-41.279,22.817-60.052
				c10.173-19.54,19.284-39.59,29.443-59.118C278.419,202.584,276.238,202.818,275.903,203.462z"/>
		</g>
	</g>
</g>
<g>
	<g>
		<path fill="#9F866B" d="M314.858,185.687c2.001,16.496,1.629,34.194-4.335,49.892c-0.191,0.503,1.263,0.324,1.451-0.172
			c5.986-15.756,6.342-33.542,4.333-50.108C316.245,184.788,314.79,185.12,314.858,185.687L314.858,185.687z"/>
	</g>
</g>
<g>
	<g>
		<path fill="#9F866B" d="M315.192,214.687c1.321,3.326,3.641,5.949,5.695,8.836c2.514,3.533,4.604,8.538,6.305,12.496
			c0.29,0.674,1.729,0.263,1.449-0.389c-1.511-3.515-3.224-7.127-5.063-10.464c-2.088-3.788-5.325-6.812-6.937-10.868
			C316.37,213.616,314.929,214.023,315.192,214.687L315.192,214.687z"/>
	</g>
</g>
<g>
	<g>
		<path fill="#9F866B" d="M316.001,208.002c-3.162-1.15-5.867-3.095-5.35-6.898c-0.466,0.125-0.932,0.25-1.397,0.375
			c2.018,2.457,5.172,6.566,8.797,5.513c2.617-0.76,1.627-7.651,1.601-9.554c-0.011-0.725-1.008-0.478-1.341-0.161
			c-3.204,3.052-3.922,7.446-4.576,11.641c-0.39,2.496-0.717,4.989-1.248,7.46c-0.321,1.501-0.825,2.842-1.455,4.223
			c-2.419-0.004-2.453-0.963-0.102-2.876c0.901-0.182,1.809-0.327,2.721-0.436c0.775-0.104,6.327-0.293,6.3-1.858
			c-0.044-2.543-4.396-2.183-3.633-5.991c0.145-0.723-1.338-0.541-1.469,0.109c-0.341,1.704,0.041,3.111,1.436,4.253
			c0.343,0.281,2.539,1.479,1.48,1.777c-1.905,0.537-4.011,0.627-5.967,0.93c-4.857,0.751-5.303,3.153-1.772,6.405
			c0.288,0.266,0.959,0.088,1.164-0.204c5.165-7.335,1.702-18.682,8.334-25c-0.446-0.054-0.894-0.107-1.341-0.161
			c0.029,2.07,0.056,4.124-0.11,6.189c-0.401,4.962-6.449-1.628-7.492-2.898c-0.353-0.429-1.32-0.192-1.397,0.375
			c-0.569,4.185,2.32,6.437,5.982,7.77C315.786,209.208,316.866,208.317,316.001,208.002L316.001,208.002z"/>
	</g>
</g>
<path fill="#A3A3A9" d="M298.848,150.628c0.684,1.509,0.015,3.287-1.494,3.972l-1.822,0.825c-1.509,0.685-3.287,0.015-3.971-1.494
	l-1.376-3.036c-0.684-1.509-0.015-3.287,1.494-3.971l1.822-0.826c1.509-0.684,3.287-0.015,3.971,1.494L298.848,150.628z"/>
<path fill="#A3A3A9" d="M311.261,150.717c-0.584,1.551-2.313,2.335-3.864,1.752l-1.872-0.705c-1.551-0.582-2.334-2.312-1.751-3.863
	l1.174-3.12c0.583-1.55,2.313-2.335,3.864-1.751l1.871,0.703c1.551,0.584,2.336,2.314,1.752,3.865L311.261,150.717z"/>
<path fill="#A3A3A9" d="M288.627,158.702c1.628,0.307,2.7,1.875,2.395,3.502l-0.37,1.967c-0.305,1.628-1.874,2.7-3.502,2.395
	l-3.276-0.615c-1.628-0.307-2.701-1.874-2.395-3.502l0.369-1.967c0.306-1.627,1.874-2.699,3.502-2.395L288.627,158.702z"/>
<path fill="#A3A3A9" d="M288.694,172.069c1.368-0.936,3.235-0.584,4.17,0.783l1.128,1.65c0.936,1.367,0.585,3.234-0.783,4.17
	l-2.751,1.881c-1.368,0.936-3.235,0.586-4.17-0.782l-1.129-1.651c-0.935-1.367-0.585-3.234,0.783-4.17L288.694,172.069z"/>
<path fill="#A3A3A9" d="M297.302,181.254c0.306-1.628,1.874-2.699,3.502-2.395l1.966,0.369c1.627,0.306,2.701,1.874,2.394,3.503
	l-0.614,3.275c-0.307,1.628-1.874,2.701-3.502,2.396l-1.966-0.369c-1.628-0.307-2.701-1.874-2.395-3.502L297.302,181.254z"/>
<path fill="#A3A3A9" d="M310.687,181.959c-0.936-1.367-0.584-3.234,0.783-4.17l1.651-1.129c1.366-0.936,3.234-0.584,4.169,0.784
	l1.882,2.751c0.936,1.367,0.585,3.234-0.782,4.17l-1.651,1.129c-1.368,0.935-3.235,0.584-4.17-0.783L310.687,181.959z"/>
<path fill="#A3A3A9" d="M320.14,172.663c-1.629-0.307-2.7-1.874-2.395-3.502l0.369-1.967c0.305-1.627,1.873-2.7,3.502-2.394
	l3.275,0.614c1.629,0.307,2.701,1.874,2.396,3.502l-0.369,1.966c-0.306,1.628-1.874,2.701-3.502,2.396L320.14,172.663z"/>
<path fill="#A3A3A9" d="M320.578,159.937c-1.368,0.935-3.234,0.584-4.17-0.783l-1.128-1.651c-0.936-1.367-0.586-3.234,0.783-4.17
	l2.75-1.881c1.368-0.936,3.235-0.586,4.17,0.783l1.129,1.65c0.936,1.367,0.586,3.234-0.782,4.17L320.578,159.937z"/>
<path fill="#A3A4A4" d="M304.083,148.784c-9.848,0-17.832,7.984-17.832,17.833s7.984,17.833,17.832,17.833
	c9.85,0,17.834-7.984,17.834-17.833S313.933,148.784,304.083,148.784z M309.667,169.2c0,1.656-1.344,3-3,3H301.5
	c-1.657,0-3-1.344-3-3v-5.166c0-1.657,1.343-3,3-3h5.167c1.656,0,3,1.343,3,3V169.2z"/>
<path fill="#F5E313" d="M352.251,332.826l-55,39.332c0,0,16,27.668,57.333,28.668L352.251,332.826z"/>
<path fill="#4185C5" d="M342.582,259.158c0,0,27-5.333,47,9l-34.998,57.014L342.582,259.158z"/>
<circle fill="#564B3D" cx="227.417" cy="295.826" r="8.833"/>
<path fill="#564B3D" d="M238.917,271.826c0,0-2.833,0.167-2.5,3.333l1.236,15.5l-4.736,13.334c0,0-7.167-0.166-7.167,8.334
	l2.167,25.498l0.167,18l-9.5,14.834c0,0-1.5,3.166,1.333,5.666c0,0,3.501,2.666,6.5-1.334l10.833-16.332l0.167-12.334l7.833,10.666
	v17.334c0,0,0.5,4.166,5.167,4.166c0,0,3.667,0.666,4.167-4.5v-19.832l-12.333-17.5l-2.667-27.834l5.333-13.666l-0.5-18.333
	c0,0-0.334-2.5-2.667-2.5C241.75,274.325,241.751,271.826,238.917,271.826z"/>
<path fill="#1C4584" d="M325.766,227.159c0,0-46.667,13.335-55,57.833c0,0-7,48.781,35.333,73.141l32-61.309L325.766,227.159z"/>
<g>
	<g>
		<path fill="#9F866B" d="M304.829,236.974c8.464,1.884,16.51,5.127,24.668,8c0.347,0.122,1.35-0.125,1.145-0.675
			c-1.372-3.669-5.562-5.416-8.902-6.873c-5.063-2.208-10.47-3.478-15.736-5.082c-0.333-0.102-1.603,0.292-1.084,0.797
			c6.055,5.902,17.022,8.491,25.263,7.538c0.441-0.051,1.111-0.486,0.627-0.933c-3.72-3.434-11.758-9.021-17.158-8.107
			c-0.282,0.047-1.122,0.407-0.731,0.836c4.058,4.455,11.881,3.994,16.982,1.767c0.391-0.171,0.622-0.722,0.102-0.898
			c-3.7-1.252-7.635-1.413-11.334-2.666c-0.448-0.152-1.013,0.081-1.153,0.539c-0.15,0.434-0.262,0.879-0.332,1.334
			c-0.118,0.565,0.78,0.464,1.052,0.359c2.977-1.152,6.038-1.63,9.144-2.265c0.478-0.097,0.894-0.719,0.29-0.967
			c-2.359-0.97-4.617-1.294-7.167-1.371c-0.371-0.011-0.92,0.132-0.986,0.576c-0.549,3.692,3.479,3.5,6.148,3.793
			c0.698,0.077,1.485-0.928,0.506-1.035c-0.909-0.1-1.819-0.176-2.729-0.272c-2.629-1.756-2.812-2.371-0.549-1.845
			c1.382,0.149,2.694,0.521,3.937,1.116c0.097-0.322,0.193-0.645,0.29-0.967c-3.241,0.662-6.426,1.206-9.521,2.403
			c0.351,0.12,0.701,0.239,1.052,0.359c0.07-0.455,0.181-0.899,0.332-1.334c-0.385,0.18-0.77,0.359-1.153,0.539
			c1.441,0.488,2.85,0.824,4.339,1.115c0.879,0.172,5.921,1.129,5.444,1.289c-4.134,1.387-10.271,1.197-13.365-2.201
			c-0.244,0.279-0.487,0.558-0.731,0.836c5.014-0.848,12.638,4.628,16.174,7.893c0.209-0.311,0.418-0.622,0.627-0.933
			c-7.765,0.898-18.349-1.554-24.069-7.13c-0.361,0.266-0.723,0.532-1.084,0.797c3.763,1.146,7.56,2.152,11.291,3.403
			c4.173,1.399,11.023,3.389,12.738,7.978c0.382-0.225,0.764-0.45,1.145-0.675c-8.157-2.873-16.204-6.116-24.668-8
			C305.061,235.876,303.952,236.778,304.829,236.974L304.829,236.974z"/>
	</g>
</g>
<g>
	<g>
		<path fill="#9F866B" d="M302.953,238.85c8.801,0.24,18.034,3.541,25.619,7.91c0.403,0.232,1.658-0.359,1.354-0.534
			c-7.848-4.521-17.259-7.841-26.38-8.09C303.07,238.123,301.979,238.823,302.953,238.85L302.953,238.85z"/>
	</g>
</g>
<g>
	<ellipse opacity="0.1" fill="#A29888" cx="378.719" cy="397.451" rx="17.885" ry="3.375"/>
	<ellipse opacity="0.05" fill="#615A54" cx="378.125" cy="397.451" rx="9.646" ry="3.375"/>
</g>
<g>
	<ellipse opacity="0.1" fill="#A29888" cx="441.666" cy="392.064" rx="17.885" ry="3.375"/>
	<ellipse opacity="0.05" fill="#615A54" cx="441.072" cy="392.064" rx="9.646" ry="3.375"/>
</g>
<g>
	<ellipse opacity="0.1" fill="#A29888" cx="497.06" cy="394.076" rx="17.885" ry="3.375"/>
	<ellipse opacity="0.05" fill="#615A54" cx="496.465" cy="394.076" rx="9.646" ry="3.375"/>
</g>
<g>
	<ellipse opacity="0.1" fill="#A29888" cx="615.366" cy="393" rx="17.885" ry="3.375"/>
	<ellipse opacity="0.05" fill="#615A54" cx="614.772" cy="393" rx="9.646" ry="3.375"/>
</g>
<g>
	<ellipse opacity="0.1" fill="#A29888" cx="725.718" cy="392.064" rx="17.885" ry="3.375"/>
	<ellipse opacity="0.05" fill="#615A54" cx="725.124" cy="392.064" rx="9.646" ry="3.375"/>
</g>
<g>
	<ellipse opacity="0.1" fill="#A29888" cx="658.095" cy="388.689" rx="17.885" ry="3.375"/>
	<ellipse opacity="0.05" fill="#615A54" cx="657.5" cy="388.689" rx="9.646" ry="3.375"/>
</g>
<g>
	<ellipse opacity="0.15" fill="#A29888" cx="235.25" cy="378.992" rx="17.885" ry="3.375"/>
	<ellipse opacity="0.05" fill="#615A54" cx="234.656" cy="378.992" rx="9.646" ry="3.375"/>
</g>
<path fill="#564B3D" d="M375.271,292.645c0,0,2.833,0.168,2.5,3.334l-1.236,15.5l4.736,13.334c0,0,7.167-0.168,7.167,8.332
	l-2.167,25.5l-0.166,18l9.5,14.832c0,0,1.5,3.168-1.334,5.668c0,0-3.5,2.666-6.5-1.334l-10.832-16.334l-0.168-12.332l-7.832,10.666
	v17.334c0,0-0.501,4.166-5.168,4.166c0,0-3.666,0.666-4.166-4.5v-19.834l12.334-17.5l2.666-27.832l-5.334-13.668l0.5-18.332
	c0,0,0.334-2.5,2.668-2.5C372.438,295.145,372.437,292.645,375.271,292.645z"/>
<g>
	<circle fill="#564B3D" cx="429.501" cy="309.312" r="8.833"/>
	<path fill="#19AA90" d="M356.314,298.047l44.333,46.668c0,0,24.333-18,24-62L356.314,298.047z"/>
	<path fill="#70C4BF" d="M358.647,303.381l55.667,37.666l10.333-66.333C424.647,274.714,386.647,266.381,358.647,303.381z"/>
	<path fill="#564B3D" d="M429.501,319.158c0,0-4.604,1.027-5.604,6.014c0,0-4.75-0.014-4.5,5.736l-7-9.75c0,0-6-2.5-4.75,3.875
		l10.841,14.375c0,0,1.659,2,3.659,0l2-2.75l2.25,15.75l-8.75,14.418l-5.75,21.082c0,0-0.75,4.25,3.25,4.25c0,0,5,1.5,6.75-4.5
		l4.5-16.5l1.75-4.332l1.354,4.332l10.646,17.25c0,0,1,3.25,7.5,1.5c0,0,3-2.5,0-7.5l-9.313-12.75l2.313-17.25l-2.313-27.236
		C438.334,325.172,436.854,319.158,429.501,319.158z"/>
</g>
<path fill="#564B3D" d="M727.083,318.059c0,0-2.918-0.498-4.25,1.668l-5.334-3.166l-1.833-6.334l-4.5,7.5
	c0,0-0.749,3.166,7.958,7.166l-2.625,0.834l-8.166-5.334c0,0-1.416-3.75-5.167,0c0,0-2.333,2.668,2,5.334l9.645,5.832
	c0,0,2.354,1.5,5.022,0l0.166,19.168l-11.667,17l-0.667,20.666c0,0,0.668,3.666,4.5,3.666c0,0,4.334,0.334,4.834-4l0.333-17.166
	l7.667-10.834l0.166,12.168l11.834,17.332c0,0,3.166,3.334,6-0.332c0,0,2.5-1.834,1.333-5.168l-10.167-14.666v-41.834
	C734.165,327.559,735.881,319.092,727.083,318.059z"/>
<g>
	<circle fill="#564B3D" cx="617.621" cy="307.816" r="8.833"/>
	<path fill="#564B3D" d="M623.287,325.482c0,0-6.583-16.414-13.791,2.709l-2.876,24.625l-5.333,18.334l-10.667,15
		c0,0-2,2.998,1.667,5.666c0,0,3.833,2.168,5.833-0.498l10.668-15.502l4.832-14.666l3.084,9.5l-0.417,18.832c0,0,1,3.035,5,3.518
		c0,0,4.751,0.068,4.583-3.6l-0.25-20.25l-4.333-15.334l1.333-18c0,0,3.667,7,8.667,0.666l7-11c0,0,4.333-2.053,0-6.025
		c0,0-1.166-1.391-4.166,2.484l-1.25,1.875l-1.75-0.25c0,0-1.25,0.75-1.5,2.625L623.287,325.482z"/>
	<rect x="588.288" y="310.482" fill="#9BC1D4" width="55.667" height="12.668"/>
</g>
<rect x="636.767" y="274.393" fill="#19AA90" width="14" height="108.333"/>
<rect x="653.435" y="246.726" fill="#EF4943" width="14" height="136"/>
<polygon fill="#EDBB6A" points="746.812,237.226 758.479,243.893 679.479,382.727 667.146,375.559 "/>
<polygon fill="#231F20" points="519.726,395.742 514.726,395.742 522.976,266.069 527.977,266.069 "/>
<polygon fill="#231F20" points="560.644,395.742 565.644,395.742 557.394,266.069 552.394,266.069 "/>
<rect x="521.352" y="313.74" fill="#231F20" width="37.667" height="4.166"/>
<rect x="521.352" y="334.822" fill="#231F20" width="37.667" height="4.166"/>
<rect x="521.352" y="356.322" fill="#231F20" width="37.667" height="4.166"/>
<rect x="520.352" y="378.098" fill="#231F20" width="40.625" height="4.166"/>
<rect x="521.352" y="294.156" fill="#231F20" width="37.667" height="4.166"/>
<rect x="523.977" y="275.741" fill="#231F20" width="32.042" height="4.166"/>
<circle fill="#564B3D" cx="505.893" cy="313.74" r="8.833"/>
<path fill="#564B3D" d="M494.977,336.488c0,0,0.25-10,8.5-12l19.25-4.25l7.5-11.75c0,0,1.75-4.5,5.5-1.75c0,0,2.75,0.502,0,6.002
	l-7.25,13.248l-15.5,4.918l-3.125,20.457c0,0,12.75-2.625,14.25,0l9,20.389c0,0,1.625,3.736-2.625,5.611c0,0-2.75,1.898-5.375-0.863
	l-7.5-15.137l-12.5,1.5l-0.125,12.375l-11,18.75c0,0-2.5,3.5-5.75,1.125c0,0-3.125-1.5-2-4.875l8.375-16.309
	c0,0-1-18.066-1.125-19.441C493.477,354.488,494.227,337.238,494.977,336.488z"/>
<rect x="517.024" y="147.875" transform="matrix(0.7072 0.707 -0.707 0.7072 278.862 -314.1703)" fill="#060808" width="3.5" height="63.501"/>
<rect x="562.757" y="147.875" transform="matrix(-0.7071 0.7071 -0.7071 -0.7071 1090.6875 -92.5275)" fill="#060808" width="3.5" height="63.499"/>
<path fill="#B99B7A" d="M602.644,263.267c0,1.657-1.344,3-3,3h-118c-1.657,0-3-1.343-3-3v-80.642c0-1.657,1.343-3,3-3h118
	c1.656,0,3,1.343,3,3V263.267z"/>
<path fill="#75987C" d="M597.31,257.385c0,1.415-1.234,2.562-2.758,2.562H486.068c-1.522,0-2.759-1.147-2.759-2.562v-68.879
	c0-1.414,1.236-2.562,2.759-2.562h108.483c1.523,0,2.758,1.148,2.758,2.562V257.385z"/>
<path fill="#75987C" d="M545.492,158.239c0,1.277-1.034,2.312-2.312,2.312h-3.082c-1.275,0-2.311-1.035-2.311-2.312v-3.081
	c0-1.276,1.035-2.312,2.311-2.312h3.082c1.277,0,2.312,1.035,2.312,2.312V158.239z"/>
<rect x="483.31" y="255.722" fill="#F7E009" width="114.172" height="4.203"/>
<path fill="#2B8BBD" d="M494.703,255.7c0,0,12.646-1.498,17.011-8.494v8.494H494.703z"/>
<path fill="#035A8C" d="M511.714,247.206c0,0,5.521-4.623,14.338-29.607V255.7h-14.338V247.206z"/>
<path fill="#2B8BBD" d="M526.052,217.598c0,0,7.427-24.442,14.563-24.442V255.7h-14.563V217.598z"/>
<path fill="#2B8BBD" d="M586.526,255.7c0,0-12.645-1.498-17.01-8.494v8.494H586.526z"/>
<path fill="#035A8C" d="M569.517,247.206c0,0-5.521-4.623-14.338-29.607V255.7h14.338V247.206z"/>
<path fill="#2B8BBD" d="M555.179,217.598c0,0-7.426-24.442-14.563-24.442V255.7h14.563V217.598z"/>
<polygon fill="#FFFFFF" points="497.999,255.7 497.405,255.7 497.405,255.219 497.999,255.052 "/>
<polygon fill="#FFFFFF" points="506.073,255.7 505.479,255.7 505.479,252.458 506.073,252.148 "/>
<polygon fill="#FFFFFF" points="512.308,255.7 511.714,255.7 511.714,247.206 512.308,246.583 "/>
<polygon fill="#FFFFFF" points="583.188,255.7 583.781,255.7 583.781,255.219 583.188,255.052 "/>
<polygon fill="#FFFFFF" points="575.113,255.7 575.707,255.7 575.707,252.458 575.113,252.148 "/>
<polygon fill="#FFFFFF" points="568.879,255.7 569.473,255.7 569.473,247.206 568.879,246.583 "/>
<polygon fill="#FFFFFF" points="526.349,255.7 525.755,255.7 525.755,218.435 526.349,216.66 "/>
<polygon fill="#FFFFFF" points="555.179,255.7 554.585,255.7 554.585,215.756 555.179,217.598 "/>
<polygon fill="#FFFFFF" points="541.209,255.7 540.615,255.7 540.615,193.156 541.209,193.212 "/>
</svg>
