<?xml version="1.0" encoding="utf-8"?>
<!-- Generator: Adobe Illustrator 19.2.1, SVG Export Plug-In . SVG Version: 6.00 Build 0)  -->
<svg version="1.1" id="Layer_1" xmlns="http://www.w3.org/2000/svg" xmlns:xlink="http://www.w3.org/1999/xlink" x="0px" y="0px"
	 viewBox="0 0 960 560" style="enable-background:new 0 0 960 560;" xml:space="preserve">
<style type="text/css">
	.st0{fill:#564B3D;}
	.st1{fill:#9F866B;}
	.st2{fill:#A3A3A9;}
	.st3{fill:#A3A4A4;}
	.st4{fill:#F5E313;}
	.st5{fill:#4185C5;}
	.st6{fill:#1C4584;}
	.st7{opacity:0.1;fill:#A29888;enable-background:new    ;}
	.st8{opacity:5.000000e-02;fill:#615A54;enable-background:new    ;}
	.st9{opacity:0.15;fill:#A29888;enable-background:new    ;}
	.st10{fill:#19AA90;}
	.st11{fill:#70C4BF;}
	.st12{fill:#9BC1D4;}
	.st13{fill:#EF4943;}
	.st14{fill:#EDBB6A;}
	.st15{fill:#231F20;}
	.st16{fill:#060808;}
	.st17{fill:#B99B7A;}
	.st18{fill:#75987C;}
	.st19{fill:#F7E009;}
	.st20{fill:#2B8BBD;}
	.st21{fill:#035A8C;}
	.st22{fill:#FFFFFF;}
</style>
<circle class="st0" cx="348" cy="337.1" r="14.6"/>
<circle class="st0" cx="910" cy="325.8" r="14.6"/>
<g>
	<g>
		<g>
			<path class="st1" d="M56.9,421.1c0.3,0,0.7-0.1,1-0.2c0.7-0.2,1.3-0.7,1.5-1.4c0.6-3-2-4.2-4.4-4.8c-3.5-0.8-7.1-1-10.6-1.8
				c-0.9-0.2-2.9,0.7-2.4,1.9c0.7,1.7,1.2,3.4,1.6,5.1c0.2,0.9,1.4,1,2.1,0.8c3-0.5,7.2-1.6,10,0c1.5,0.9,4.5-1.1,2.7-2.2
				c-4-2.4-9.1-1.3-13.5-0.5c0.7,0.3,1.4,0.6,2.1,0.8c-0.4-1.8-0.9-3.5-1.6-5.1c-0.8,0.6-1.6,1.2-2.4,1.9c2.3,0.5,4.5,1,6.8,1.3
				c1.7,0.2,6.4,0,5.8,2.7c0.5-0.5,1-1,1.5-1.4c0,0,0,0,0,0C55.2,418.5,54.5,421.4,56.9,421.1z"/>
		</g>
	</g>
	<g>
		<g>
			<path class="st1" d="M63,410.9c-1.4,2.5-2.8,5-4.2,7.5c-0.3,0.5,0.8,0.5,1,0.5c0.8,0,1.8-0.3,2.4-0.9c2.2-2,3.4-4.9,4.3-7.7
				C66.9,409.4,63.3,409.9,63,410.9c-0.9,2.7-1.9,5.3-4,7.2c1.1-0.1,2.3-0.2,3.4-0.4c1.4-2.5,2.8-5,4.2-7.5c0.4-0.6-1.3-0.5-1.5-0.5
				C64.4,409.9,63.4,410.2,63,410.9z"/>
		</g>
	</g>
	<g>
		<g>
			<path class="st1" d="M55.8,419.8c-0.1,0.1-0.1,0.2-0.2,0.4c1.2-0.3,2.3-0.6,3.5-0.9c-2.9-2.3-10.2-0.1-13.7,0.7
				c0.7,0.1,1.4,0.3,2,0.4c-0.1-0.5-0.2-0.9-0.3-1.4c-0.1-0.6-1.1-0.6-1.5-0.5c-4.6,0.9-8.6,0.4-13.1-0.6c-0.7-0.2-3.6,0.5-2.8,1.7
				c1.1,1.4,2.1,2.9,3,4.4c0.6-0.6,1.3-1.1,1.9-1.7c-4,0.2-7.9-0.2-11.8,0.5c-0.4,0.1-2.8,0.8-1.9,1.7c2.1,2,4,3.3,6.5,4.7
				c0.4-0.6,0.8-1.2,1.2-1.7c-2.5,0.7-5,1.3-7.4,2c-0.3,0.1-2.3,1-1.4,1.6c3.4,2.3,7.2,3.3,11.2,4.1c2.1,0.5,4.3,0.8,6.4,1.1
				c3.8,0.7,5.7,3.7,8.5,6.1c0.8,0.7,2.8,0.2,3.3-0.7c1.6-2.9,3-6.9,5.8-8.7c0.4-0.3,1.1-1,0.3-1.4c-0.7-0.3,2.1-4.6,2.9-6
				c-0.9,0.3-1.8,0.6-2.8,0.9c0.6,0.1,1.2,0.2,1.8,0.3c0.8,0.1,2.7-0.2,2.9-1.2c0.5-2.8,0.7-4.7,2.1-7.2c-1.2,0.1-2.3,0.1-3.5,0.2
				c-0.2,0.7-0.4,1.4-0.6,2c-0.4,1.3,3.2,0.7,3.6-0.5c0.2-0.7,0.4-1.5,0.7-2.2c0.9-1.6-2.5-0.8-3.1-0.3c0,0,0,0,0,0
				c1.1,0,2.2,0,3.2,0c0.2-0.9,0.5-1.9,0.7-2.8c0.3-1.3-3.3-0.7-3.6,0.5c-0.5,1.9-0.4,2.6-2.6,3.4c-2.4,0.9-0.2,2,1.4,1.4
				c3.4-1.2,3.9-2,4.8-5.3c-1.2,0.2-2.4,0.3-3.6,0.5c-0.2,0.9-0.5,1.9-0.7,2.8c-0.4,1.4,2.8,0.4,3.2,0.1c0,0,0,0,0,0
				c-1-0.1-2.1-0.2-3.1-0.3c-0.5,0.8-0.7,1.9-0.9,2.7c1.2-0.2,2.4-0.3,3.6-0.5c0.2-0.7,0.4-1.4,0.6-2c0.4-1.3-3-0.6-3.5,0.2
				c-1.9,3.5-1.5,3.6-2.3,7.7c1-0.4,1.9-0.8,2.9-1.2c-0.6-0.1-1.2-0.2-1.8-0.3c-0.8-0.1-2.3,0.1-2.8,0.9c-1.2,2.1-2.4,4.3-3.6,6.4
				c-0.2,0.4-0.2,0.7,0.2,0.9c-1.4-0.6-5.1,7.8-5.6,8.8c1.1-0.2,2.2-0.4,3.3-0.7c-4.3-3.6-4.4-5.6-9.6-6.6
				c-5.5-1.1-11.6-1.5-16.4-4.7c-0.5,0.5-1,1.1-1.4,1.6c2.5-0.6,5-1.3,7.4-2c0.6-0.1,2.4-1.1,1.2-1.7c-2.4-1-4.4-2.5-6-4.4
				c-0.6,0.6-1.3,1.1-1.9,1.7c3.9-0.7,7.9-0.3,11.8-0.5c0.7,0,2.5-0.7,1.9-1.7c-0.9-1.5-1.9-3-3-4.4c-0.9,0.6-1.8,1.1-2.8,1.7
				c0.6,0.1,13.6,1.8,13.6,1.5c0.2,0.8,1.6,0.5,2,0.4c-0.8,0.2,9-1.8,9.9-1.1c1,0.8,2.9,0.1,3.5-0.9c0.1-0.1,0.1-0.2,0.2-0.4
				C59.9,418.3,56.3,418.7,55.8,419.8z"/>
		</g>
	</g>
	<g>
		<g>
			<path class="st1" d="M45.5,413.8c-2.7-5.1-4.6-4.5-9.6-4.6c-3.2-0.1-6.1-1.6-9.4-1.1c-2.9,0.5-5.5,1.6-8.1,2.9
				c-0.3,0.1-1.3,0.9-0.4,1c2.5,0.4,5.2,2.8,7.6,2.4c6-1,10.6-0.8,16.6,0.5c0.9,0.2,4-1.2,2.9-1.5c-6.5-1.4-12.9-2.4-19.4-0.4
				c0.6,0,1.2,0,1.9,0c-2.2-1.3-4.2-2.1-6.7-2.5c-0.1,0.3-0.3,0.7-0.4,1c5.2-2.7,9.2-1,14.3-0.9c3.7,0.1,5.1,0.2,7.1,4
				C42.5,415.8,45.9,414.5,45.5,413.8z"/>
		</g>
	</g>
	<g>
		<g>
			<path class="st1" d="M52.7,433.5c4.1,1.5,10.8,2.9,13.8-1.4c3.2-4.6-4.2-6.7-7.2-7.4c-1-0.2-2.6,0.1-2.9,1.3
				c-0.6,2.3-1.9,4.2-3.8,5.7c-1.9,1.5,1.1,2.4,2.3,1.4c2.4-2,4.2-4.4,5.1-7.4c-1,0.4-1.9,0.9-2.9,1.3c2.1,0.5,5.7,0.9,6.3,3.4
				c1,4-7.1,1.5-8.6,1C53.5,430.8,50.7,432.8,52.7,433.5z"/>
		</g>
	</g>
	<g>
		<g>
			<path class="st1" d="M21.7,428c-0.8-1.8-0.3-3.1,1.5-3.7c0.1,0,1.4-0.6,1.2-0.9c-2.8-3.7,3-4.2,5.5-3.8c0.5,0.1,3.8-0.5,3.2-1.3
				c-3.8-4.6-6.3-6.8-11-2.8c-2.4,2-4.2,4.6-6.4,6.9c-2.1,2.2-1.9,1.8-2.6-0.9c-1.2-4.4,4.9-8.3,7.8-10c0.6-0.4,0.4-0.7-0.2-0.8
				c-8.9-0.6-18.7,5.2-20.5,14.4c-2.2,11,16.2,7,21.4,5.8c0.3-0.1,2.1-0.6,1.5-1.2C22.6,429.1,22.2,428.6,21.7,428
				c-0.5-0.9-3.9,0.4-3.6,1c0.7,1.2,0.5,1,1.5,2c0.5-0.4,1-0.8,1.5-1.2c-7.2,1.7-21.7,2.9-16.4-8.8c0.7-1.6,1.9-3,3.1-4.2
				c0.6-0.7,1.3-1.3,2-1.9c1.8-1.7,4-2.5,6.5-2.5c-3.2,1.9-5.9,4.7-7,8.4c-1.3,4.5,2.4,5.3,5.4,4.3c5.1-1.8,6.8-9.2,11.7-10.8
				c-0.8,0.1-1.5,0.1-2.3,0.2c2.1,1.5,3.7,3.1,5.3,5.1c1.1-0.4,2.1-0.9,3.2-1.3c-5.1-0.9-9.7-0.6-13.7,3c-0.1,0.1-0.2,0.2-0.2,0.3
				c0.5,1,1.1,2,1.8,2.8c0.4-0.3,0.8-0.6,1.2-0.9c-2.8,1.1-4.5,2.2-3.8,5.5C18.3,429.7,21.9,428.8,21.7,428z"/>
		</g>
	</g>
	<g>
		<g>
			<path class="st1" d="M63.1,414.9c0.8-2.7,1.5-5.4,2.3-8.1c-1.2,0.3-2.4,0.5-3.6,0.8c-0.1,1.7,0,3.4,0.1,5.1c0.1,1,3.3,0,3.6-0.8
				c1.1-3.5,1.6-7,1.7-10.7c0-1-3.3,0.1-3.6,0.8c-0.2,0.5-0.5,1-0.7,1.5c1.2-0.2,2.4-0.4,3.6-0.6c1.3-4.7,2.6-9.4,3.9-14.1
				c0.3-1-3.2-0.4-3.6,0.6c-3.3,8.5-5.3,17.2-7.3,26.1C59.3,416.5,62.9,415.9,63.1,414.9c1.9-8.9,4-17.6,7.3-26.1
				c-1.2,0.2-2.4,0.4-3.6,0.6c-1.3,4.7-2.6,9.4-3.9,14.1c-0.3,1.1,3.2,0.3,3.6-0.6c0.2-0.5,0.5-1,0.7-1.5c-1.2,0.3-2.4,0.5-3.6,0.8
				c-0.1,3.5-0.6,6.9-1.6,10.3c1.2-0.3,2.4-0.5,3.6-0.8c-0.2-1.7-0.2-3.4-0.1-5.1c0-0.8-3.3-0.1-3.6,0.8c-0.8,2.7-1.5,5.4-2.3,8.1
				C59.3,416.5,62.8,416,63.1,414.9z"/>
		</g>
	</g>
	<g>
		<g>
			<path class="st1" d="M74.3,376.8c2.3-10,5-19.9,7.7-29.7c0.4-1.5-3.2-1-3.6,0.4c-3.9,14-7.8,27.9-11.6,41.9
				c-0.4,1.6,3.1,0.8,3.6-0.4C71.9,385,73.3,381,74.3,376.8c0.4-1.5-3.3-1-3.6,0.4c-1,4.2-2.4,8.1-3.9,12.1c1.2-0.1,2.4-0.2,3.6-0.4
				c3.9-14,7.8-27.9,11.6-41.9c-1.2,0.1-2.4,0.2-3.6,0.4c-2.7,9.9-5.4,19.7-7.7,29.7C70.4,378.7,74,378.2,74.3,376.8z"/>
		</g>
	</g>
	<g>
		<g>
			<path class="st1" d="M163.3,153.5c-16.8,32.2-31.8,65.4-48.6,97.6c-16.3,31.2-30.6,65.1-37.9,99.7c-0.3,1.4,3.1,0.7,3.5-0.2
				c33.6-73.7,67.2-147.4,100.8-221.1c2.4-5.2,4.7-10.3,7.1-15.5c0.7-1.6-2.5-1.1-3.1-0.4C174.8,125.1,170.8,140.4,163.3,153.5
				c-0.9,1.5,2.8,1.1,3.3,0.1c7.3-12.9,11.2-28.1,21.2-39.4c-1-0.1-2.1-0.2-3.1-0.4C151.1,187.6,117.5,261.3,83.9,335
				c-2.4,5.2-4.7,10.3-7.1,15.5c1.2-0.1,2.3-0.1,3.5-0.2c7.3-34.4,21.5-68.1,37.7-99.1c16.8-32.3,31.8-65.4,48.6-97.6
				C167.4,152.1,163.8,152.5,163.3,153.5z"/>
		</g>
	</g>
</g>
<g>
	<g>
		<path class="st1" d="M227.6,124.2c3.3,27.2,2.7,56.5-7.2,82.4c-0.3,0.8,2.1,0.5,2.4-0.3c9.9-26,10.5-55.4,7.2-82.7
			C229.9,122.7,227.5,123.2,227.6,124.2L227.6,124.2z"/>
	</g>
</g>
<g>
	<g>
		<path class="st1" d="M228.2,172c2.2,5.5,6,9.8,9.4,14.6c4.2,5.8,7.6,14.1,10.4,20.6c0.5,1.1,2.9,0.4,2.4-0.6
			c-2.5-5.8-5.3-11.8-8.4-17.3c-3.4-6.3-8.8-11.2-11.5-17.9C230.1,170.3,227.7,171,228.2,172L228.2,172z"/>
	</g>
</g>
<g>
	<g>
		<path class="st1" d="M229.5,161c-5.2-1.9-9.7-5.1-8.8-11.4c-0.8,0.2-1.5,0.4-2.3,0.6c3.3,4.1,8.5,10.8,14.5,9.1
			c4.3-1.3,2.7-12.6,2.6-15.8c0-1.2-1.7-0.8-2.2-0.3c-5.3,5-6.5,12.3-7.6,19.2c-0.6,4.1-1.2,8.2-2.1,12.3c-0.5,2.5-1.4,4.7-2.4,7
			c-4,0-4-1.6-0.2-4.7c1.5-0.3,3-0.5,4.5-0.7c1.3-0.2,10.4-0.5,10.4-3.1c-0.1-4.2-7.3-3.6-6-9.9c0.2-1.2-2.2-0.9-2.4,0.2
			c-0.6,2.8,0.1,5.1,2.4,7c0.6,0.5,4.2,2.4,2.4,2.9c-3.1,0.9-6.6,1-9.9,1.5c-8,1.2-8.8,5.2-2.9,10.6c0.5,0.4,1.6,0.1,1.9-0.3
			c8.5-12.1,2.8-30.8,13.8-41.3c-0.7-0.1-1.5-0.2-2.2-0.3c0,3.4,0.1,6.8-0.2,10.2c-0.7,8.2-10.6-2.7-12.4-4.8
			c-0.6-0.7-2.2-0.3-2.3,0.6c-0.9,6.9,3.8,10.6,9.9,12.8C229.1,163,230.9,161.5,229.5,161L229.5,161z"/>
	</g>
</g>
<path class="st2" d="M201.2,66.3c1.1,2.5,0,5.4-2.5,6.6l-3,1.4c-2.5,1.1-5.4,0-6.6-2.5l-2.3-5c-1.1-2.5,0-5.4,2.5-6.6l3-1.4
	c2.5-1.1,5.4,0,6.6,2.5L201.2,66.3z"/>
<path class="st2" d="M221.7,66.4c-1,2.6-3.8,3.9-6.4,2.9l-3.1-1.2c-2.6-1-3.9-3.8-2.9-6.4l1.9-5.2c1-2.6,3.8-3.9,6.4-2.9l3.1,1.2
	c2.6,1,3.9,3.8,2.9,6.4L221.7,66.4z"/>
<path class="st2" d="M184.3,79.6c2.7,0.5,4.5,3.1,4,5.8l-0.6,3.2c-0.5,2.7-3.1,4.5-5.8,4l-5.4-1c-2.7-0.5-4.5-3.1-4-5.8l0.6-3.2
	c0.5-2.7,3.1-4.5,5.8-4L184.3,79.6z"/>
<path class="st2" d="M184.4,101.7c2.3-1.5,5.3-1,6.9,1.3l1.9,2.7c1.5,2.3,1,5.3-1.3,6.9l-4.5,3.1c-2.3,1.5-5.3,1-6.9-1.3l-1.9-2.7
	c-1.5-2.3-1-5.3,1.3-6.9L184.4,101.7z"/>
<path class="st2" d="M198.6,116.9c0.5-2.7,3.1-4.5,5.8-4l3.2,0.6c2.7,0.5,4.5,3.1,4,5.8l-1,5.4c-0.5,2.7-3.1,4.5-5.8,4l-3.2-0.6
	c-2.7-0.5-4.5-3.1-4-5.8L198.6,116.9z"/>
<path class="st2" d="M220.7,118c-1.5-2.3-1-5.3,1.3-6.9l2.7-1.9c2.3-1.5,5.3-1,6.9,1.3l3.1,4.5c1.5,2.3,1,5.3-1.3,6.9l-2.7,1.9
	c-2.3,1.5-5.3,1-6.9-1.3L220.7,118z"/>
<path class="st2" d="M236.3,102.7c-2.7-0.5-4.5-3.1-4-5.8l0.6-3.2c0.5-2.7,3.1-4.5,5.8-4l5.4,1c2.7,0.5,4.5,3.1,4,5.8l-0.6,3.2
	c-0.5,2.7-3.1,4.5-5.8,4L236.3,102.7z"/>
<path class="st2" d="M237,81.7c-2.3,1.5-5.3,1-6.9-1.3l-1.9-2.7c-1.5-2.3-1-5.3,1.3-6.9l4.5-3.1c2.3-1.5,5.3-1,6.9,1.3l1.9,2.7
	c1.5,2.3,1,5.3-1.3,6.9L237,81.7z"/>
<path class="st3" d="M209.8,63.2c-16.3,0-29.4,13.2-29.4,29.4s13.2,29.4,29.4,29.4c16.3,0,29.4-13.2,29.4-29.4
	S226.1,63.2,209.8,63.2z M219,97c0,2.7-2.2,5-5,5h-8.5c-2.7,0-5-2.2-5-5v-8.5c0-2.7,2.2-5,5-5h8.5c2.7,0,5,2.2,5,5V97z"/>
<path class="st4" d="M289.3,367.1L198.5,432c0,0,26.4,45.7,94.7,47.3L289.3,367.1z"/>
<path class="st5" d="M273.4,245.5c0,0,44.6-8.8,77.6,14.9l-57.8,94.1L273.4,245.5z"/>
<circle class="st0" cx="83.2" cy="306" r="14.6"/>
<path class="st0" d="M102.2,266.4c0,0-4.7,0.3-4.1,5.5l2,25.6l-7.8,22c0,0-11.8-0.3-11.8,13.8l3.6,42.1l0.3,29.7l-15.7,24.5
	c0,0-2.5,5.2,2.2,9.4c0,0,5.8,4.4,10.7-2.2l17.9-27l0.3-20.4l12.9,17.6v28.6c0,0,0.8,6.9,8.5,6.9c0,0,6.1,1.1,6.9-7.4v-32.7
	l-20.4-28.9l-4.4-46l8.8-22.6l-0.8-30.3c0,0-0.6-4.1-4.4-4.1C106.9,270.5,106.9,266.4,102.2,266.4z"/>
<path class="st6" d="M245.6,192.6c0,0-77,22-90.8,95.5c0,0-11.6,80.5,58.3,120.8L266,307.7L245.6,192.6z"/>
<g>
	<g>
		<path class="st1" d="M211,208.8c14,3.1,27.3,8.5,40.7,13.2c0.6,0.2,2.2-0.2,1.9-1.1c-2.3-6.1-9.2-8.9-14.7-11.3
			c-8.4-3.6-17.3-5.7-26-8.4c-0.5-0.2-2.6,0.5-1.8,1.3c10,9.7,28.1,14,41.7,12.4c0.7-0.1,1.8-0.8,1-1.5
			c-6.1-5.7-19.4-14.9-28.3-13.4c-0.5,0.1-1.9,0.7-1.2,1.4c6.7,7.4,19.6,6.6,28,2.9c0.6-0.3,1-1.2,0.2-1.5
			c-6.1-2.1-12.6-2.3-18.7-4.4c-0.7-0.3-1.7,0.1-1.9,0.9c-0.2,0.7-0.4,1.5-0.5,2.2c-0.2,0.9,1.3,0.8,1.7,0.6
			c4.9-1.9,10-2.7,15.1-3.7c0.8-0.2,1.5-1.2,0.5-1.6c-3.9-1.6-7.6-2.1-11.8-2.3c-0.6,0-1.5,0.2-1.6,1c-0.9,6.1,5.7,5.8,10.2,6.3
			c1.2,0.1,2.5-1.5,0.8-1.7c-1.5-0.2-3-0.3-4.5-0.4c-4.3-2.9-4.6-3.9-0.9-3c2.3,0.2,4.4,0.9,6.5,1.8c0.2-0.5,0.3-1.1,0.5-1.6
			c-5.4,1.1-10.6,2-15.7,4c0.6,0.2,1.2,0.4,1.7,0.6c0.1-0.8,0.3-1.5,0.5-2.2c-0.6,0.3-1.3,0.6-1.9,0.9c2.4,0.8,4.7,1.4,7.2,1.8
			c1.5,0.3,9.8,1.9,9,2.1c-6.8,2.3-17,2-22.1-3.6c-0.4,0.5-0.8,0.9-1.2,1.4c8.3-1.4,20.9,7.6,26.7,13c0.3-0.5,0.7-1,1-1.5
			c-12.8,1.5-30.3-2.6-39.7-11.8c-0.6,0.4-1.2,0.9-1.8,1.3c6.2,1.9,12.5,3.6,18.6,5.6c6.9,2.3,18.2,5.6,21,13.2
			c0.6-0.4,1.3-0.7,1.9-1.1c-13.5-4.7-26.8-10.1-40.7-13.2C211.4,207,209.6,208.5,211,208.8L211,208.8z"/>
	</g>
</g>
<g>
	<g>
		<path class="st1" d="M207.9,211.9c14.5,0.4,29.8,5.8,42.3,13.1c0.7,0.4,2.7-0.6,2.2-0.9c-13-7.5-28.5-12.9-43.6-13.4
			C208.1,210.7,206.3,211.9,207.9,211.9L207.9,211.9z"/>
	</g>
</g>
<g>
	<ellipse class="st7" cx="333" cy="473.8" rx="29.5" ry="5.6"/>
	<ellipse class="st8" cx="332.1" cy="473.8" rx="15.9" ry="5.6"/>
</g>
<g>
	<ellipse class="st7" cx="437" cy="464.9" rx="29.5" ry="5.6"/>
	<ellipse class="st8" cx="436" cy="464.9" rx="15.9" ry="5.6"/>
</g>
<g>
	<ellipse class="st7" cx="528.4" cy="468.2" rx="29.5" ry="5.6"/>
	<ellipse class="st8" cx="527.4" cy="468.2" rx="15.9" ry="5.6"/>
</g>
<g>
	<ellipse class="st7" cx="723.7" cy="466.4" rx="29.5" ry="5.6"/>
	<ellipse class="st8" cx="722.7" cy="466.4" rx="15.9" ry="5.6"/>
</g>
<g>
	<ellipse class="st7" cx="905.9" cy="464.9" rx="29.5" ry="5.6"/>
	<ellipse class="st8" cx="904.9" cy="464.9" rx="15.9" ry="5.6"/>
</g>
<g>
	<ellipse class="st7" cx="794.3" cy="459.3" rx="29.5" ry="5.6"/>
	<ellipse class="st8" cx="793.3" cy="459.3" rx="15.9" ry="5.6"/>
</g>
<g>
	<ellipse class="st9" cx="96.2" cy="443.3" rx="29.5" ry="5.6"/>
	<ellipse class="st8" cx="95.2" cy="443.3" rx="15.9" ry="5.6"/>
</g>
<path class="st0" d="M327.3,300.8c0,0,4.7,0.3,4.1,5.5l-2,25.6l7.8,22c0,0,11.8-0.3,11.8,13.8l-3.6,42.1l-0.3,29.7l15.7,24.5
	c0,0,2.5,5.2-2.2,9.4c0,0-5.8,4.4-10.7-2.2l-17.9-27l-0.3-20.4l-12.9,17.6V470c0,0-0.8,6.9-8.5,6.9c0,0-6.1,1.1-6.9-7.4v-32.7
	l20.4-28.9l4.4-45.9l-8.8-22.6l0.8-30.3c0,0,0.6-4.1,4.4-4.1C322.7,304.9,322.7,300.8,327.3,300.8z"/>
<g>
	<circle class="st0" cx="416.9" cy="328.3" r="14.6"/>
	<path class="st10" d="M296,309.7l73.2,77c0,0,40.2-29.7,39.6-102.4L296,309.7z"/>
	<path class="st11" d="M299.9,318.5l91.9,62.2l17.1-109.5C408.9,271.2,346.1,257.4,299.9,318.5z"/>
	<path class="st0" d="M416.9,344.5c0,0-7.6,1.7-9.3,9.9c0,0-7.8,0-7.4,9.5l-11.6-16.1c0,0-9.9-4.1-7.8,6.4l17.9,23.7
		c0,0,2.7,3.3,6,0l3.3-4.5l3.7,26l-14.4,23.8l-9.5,34.8c0,0-1.2,7,5.4,7c0,0,8.3,2.5,11.1-7.4l7.4-27.2l2.9-7.2l2.2,7.2l17.6,28.5
		c0,0,1.7,5.4,12.4,2.5c0,0,5-4.1,0-12.4l-15.4-21l3.8-28.5l-3.8-45C431.5,354.5,429,344.5,416.9,344.5z"/>
</g>
<path class="st0" d="M908.2,342.7c0,0-4.8-0.8-7,2.8l-8.8-5.2l-3-10.5l-7.4,12.4c0,0-1.2,5.2,13.1,11.8l-4.3,1.4l-13.5-8.8
	c0,0-2.3-6.2-8.5,0c0,0-3.9,4.4,3.3,8.8l15.9,9.6c0,0,3.9,2.5,8.3,0l0.3,31.6l-19.3,28.1l-1.1,34.1c0,0,1.1,6.1,7.4,6.1
	c0,0,7.2,0.6,8-6.6l0.5-28.3l12.7-17.9l0.3,20.1l19.5,28.6c0,0,5.2,5.5,9.9-0.5c0,0,4.1-3,2.2-8.5l-16.8-24.2v-69.1
	C919.9,358.4,922.7,344.4,908.2,342.7z"/>
<g>
	<circle class="st0" cx="727.4" cy="325.8" r="14.6"/>
	<path class="st0" d="M736.8,355c0,0-10.9-27.1-22.8,4.5l-4.7,40.7l-8.8,30.3l-17.6,24.8c0,0-3.3,4.9,2.8,9.4c0,0,6.3,3.6,9.6-0.8
		l17.6-25.6l8-24.2l5.1,15.7l-0.7,31.1c0,0,1.7,5,8.3,5.8c0,0,7.8,0.1,7.6-5.9l-0.4-33.4l-7.2-25.3l2.2-29.7c0,0,6.1,11.6,14.3,1.1
		l11.6-18.2c0,0,7.2-3.4,0-9.9c0,0-1.9-2.3-6.9,4.1l-2.1,3.1l-2.9-0.4c0,0-2.1,1.2-2.5,4.3L736.8,355z"/>
	<rect x="679" y="330.2" class="st12" width="91.9" height="20.9"/>
</g>
<rect x="759.1" y="270.6" class="st10" width="23.1" height="178.9"/>
<rect x="786.6" y="224.9" class="st13" width="23.1" height="224.5"/>
<polygon class="st14" points="940.7,209.3 960,220.3 829.6,449.5 809.2,437.6 "/>
<polygon class="st15" points="565.8,471 557.6,471 571.2,256.9 579.5,256.9 "/>
<polygon class="st15" points="633.4,471 641.6,471 628,256.9 619.8,256.9 "/>
<rect x="568.5" y="335.6" class="st15" width="62.2" height="6.9"/>
<rect x="568.5" y="370.4" class="st15" width="62.2" height="6.9"/>
<rect x="568.5" y="405.9" class="st15" width="62.2" height="6.9"/>
<rect x="566.9" y="441.8" class="st15" width="67.1" height="6.9"/>
<rect x="568.5" y="303.2" class="st15" width="62.2" height="6.9"/>
<rect x="572.8" y="272.8" class="st15" width="52.9" height="6.9"/>
<circle class="st0" cx="543" cy="335.6" r="14.6"/>
<path class="st0" d="M525,373.1c0,0,0.4-16.5,14-19.8l31.8-7l12.4-19.4c0,0,2.9-7.4,9.1-2.9c0,0,4.5,0.8,0,9.9l-12,21.9l-25.6,8.1
	l-5.2,33.8c0,0,21-4.3,23.5,0l14.9,33.7c0,0,2.7,6.2-4.3,9.3c0,0-4.5,3.1-8.9-1.4l-12.4-25l-20.6,2.5l-0.2,20.4l-18.2,31
	c0,0-4.1,5.8-9.5,1.9c0,0-5.2-2.5-3.3-8l13.8-26.9c0,0-1.7-29.8-1.9-32.1C522.5,402.9,523.7,374.4,525,373.1z"/>
<rect x="511.8" y="111.3" transform="matrix(0.707 -0.7072 0.7072 0.707 84.5617 432.464)" class="st16" width="104.8" height="5.8"/>
<rect x="636.9" y="61.7" transform="matrix(0.7071 -0.7071 0.7071 0.7071 106.6612 485.821)" class="st16" width="5.8" height="104.8"/>
<path class="st17" d="M702.7,252.3c0,2.7-2.2,5-5,5H503c-2.7,0-5-2.2-5-5V119.1c0-2.7,2.2-5,5-5h194.8c2.7,0,5,2.2,5,5V252.3z"/>
<path class="st18" d="M693.9,242.5c0,2.3-2,4.2-4.6,4.2H510.3c-2.5,0-4.6-1.9-4.6-4.2V128.8c0-2.3,2-4.2,4.6-4.2h179.1
	c2.5,0,4.6,1.9,4.6,4.2L693.9,242.5L693.9,242.5z"/>
<path class="st18" d="M608.4,78.9c0,2.1-1.7,3.8-3.8,3.8h-5.1c-2.1,0-3.8-1.7-3.8-3.8v-5.1c0-2.1,1.7-3.8,3.8-3.8h5.1
	c2.1,0,3.8,1.7,3.8,3.8V78.9z"/>
<rect x="505.7" y="239.8" class="st19" width="188.5" height="6.9"/>
<path class="st20" d="M524.5,239.8c0,0,20.9-2.5,28.1-14v14H524.5z"/>
<path class="st21" d="M552.6,225.7c0,0,9.1-7.6,23.7-48.9v62.9h-23.7V225.7z"/>
<path class="st20" d="M576.3,176.9c0,0,12.3-40.4,24-40.4v103.3h-24V176.9z"/>
<path class="st20" d="M676.1,239.8c0,0-20.9-2.5-28.1-14v14H676.1z"/>
<path class="st21" d="M648,225.7c0,0-9.1-7.6-23.7-48.9v62.9H648V225.7z"/>
<path class="st20" d="M624.4,176.9c0,0-12.3-40.4-24-40.4v103.3h24V176.9z"/>
<polygon class="st22" points="530,239.8 529,239.8 529,239 530,238.7 "/>
<polygon class="st22" points="543.3,239.8 542.3,239.8 542.3,234.4 543.3,233.9 "/>
<polygon class="st22" points="553.6,239.8 552.6,239.8 552.6,225.7 553.6,224.7 "/>
<polygon class="st22" points="670.6,239.8 671.6,239.8 671.6,239 670.6,238.7 "/>
<polygon class="st22" points="657.3,239.8 658.3,239.8 658.3,234.4 657.3,233.9 "/>
<polygon class="st22" points="647,239.8 648,239.8 648,225.7 647,224.7 "/>
<polygon class="st22" points="576.8,239.8 575.8,239.8 575.8,178.2 576.8,175.3 "/>
<polygon class="st22" points="624.4,239.8 623.4,239.8 623.4,173.8 624.4,176.9 "/>
<polygon class="st22" points="601.3,239.8 600.3,239.8 600.3,136.5 601.3,136.6 "/>
</svg>
